<?xml version="1.0" encoding="utf-8"?>
<!-- Generator: Adobe Illustrator 20.1.0, SVG Export Plug-In . SVG Version: 6.00 Build 0)  -->
<!DOCTYPE svg PUBLIC "-//W3C//DTD SVG 1.1//EN" "http://www.w3.org/Graphics/SVG/1.1/DTD/svg11.dtd">
<svg version="1.1" id="_HEADER_" xmlns="http://www.w3.org/2000/svg" xmlns:xlink="http://www.w3.org/1999/xlink" x="0px" y="0px"
	 viewBox="0 0 910 250" style="enable-background:new 0 0 910 250;" xml:space="preserve">
<style type="text/css">
	.st0{fill:#46E1E2;}
	.st1{fill:#4B4E69;}
	.st2{fill:#FCED50;}
	.st3{fill:#F96577;}
	.st4{fill:#F4AED1;}
	.st5{fill:#C382FF;}
	.st6{fill:#DDDBE4;}
	.st7{fill:#FFFFFF;}
</style>
<g id="::_mark">
	<g id="::_icon">
		<g>
			<path id="Polygon_3" class="st0" d="M75,62.5H0V0L75,62.5z"/>
			<path id="Polygon_3-2" class="st1" d="M0,62.5l75,63.2H0"/>
			<path id="Polygon_3-3" class="st2" d="M75,125.7l-75-63L75,62.3"/>
			<path id="Polygon_3-4" class="st3" d="M75,62.5l75,63.2H75"/>
		</g>
		<g>
			<path id="Polygon_3-5" class="st4" d="M75,187.8H0v62.5L75,187.8z"/>
			<path id="Polygon_3-6" class="st5" d="M75,125.7L0,187.8h75"/>
			<path id="Polygon_3-7" class="st6" d="M0,187.8l75-62.2H0"/>
			<path id="Polygon_3-8" class="st7" d="M75,187.8l75-62.2H75"/>
		</g>
	</g>
	<g id="::_text">
		<path id="PRO" class="st7" d="M248.4,75.5h-37.5c-2.1,0-3.8,1.7-3.8,3.8v90.4c0,2.1,1.7,3.8,3.8,3.8h11.3c2.1,0,3.8-1.7,3.8-3.8
			v-31.2h22.4c11.3,0,20.1-2.7,26.3-8.2s9.4-13.3,9.4-23.5c0-10.2-3.1-17.9-9.4-23.3S259.6,75.5,248.4,75.5L248.4,75.5L248.4,75.5z
			 M226,121V93h21.7c5.7,0,10,1.1,13,3.2c3,2.1,4.5,5.7,4.5,10.7c0,5-1.5,8.7-4.5,10.8s-7.3,3.3-12.9,3.3H226L226,121z M339.2,75.5
			h-36.1c-2.1,0-3.8,1.7-3.8,3.8v90.4c0,2.1,1.7,3.8,3.8,3.8h11.3c2.1,0,3.8-1.7,3.8-3.8v-32.6h18.6l18.3,32.6
			c1.1,2.4,3.4,3.9,6,3.8h11.9c1.7,0,3.1-1.4,3.1-3.1c0-0.5-0.2-1.1-0.4-1.5l-19.3-34.6c5.6-2,10.4-5.8,13.7-10.7
			c3.2-4.8,4.8-10.6,4.8-17.4c0-9.6-3.1-17.1-9.2-22.5C359.5,78.2,350.7,75.5,339.2,75.5L339.2,75.5L339.2,75.5z M318.2,119.6V93
			h20.3c5.8,0,10.1,1,13.1,2.9s4.4,5.3,4.4,10.3c0,4.9-1.5,8.4-4.5,10.4c-3,2-7.3,3-13,3C338.5,119.6,318.2,119.6,318.2,119.6z
			 M430.9,74.1c-13.1,0-23.1,3.5-30,10.6c-6.9,7-10.6,16.2-11.2,27.4c-0.2,4.3-0.3,8-0.3,11.2c0,4.2,0.1,8.8,0.3,13.9
			c0.6,11.2,4.3,20.3,11.2,27.3s16.9,10.5,30,10.5s23.1-3.5,30-10.5c6.9-7,10.6-16.1,11.2-27.3c0.2-5,0.3-9.7,0.3-13.9
			c0-3.2-0.1-6.9-0.3-11.2c-0.6-11.3-4.3-20.4-11.2-27.4S444,74.1,430.9,74.1L430.9,74.1z M430.9,91.6c6.5,0,11.8,1.9,15.8,5.6
			c4,3.7,6.1,8.9,6.5,15.5c0.2,2.3,0.3,6.3,0.3,11.8c0,5.6-0.1,9.6-0.3,11.9c-0.4,6.6-2.5,11.8-6.5,15.5s-9.2,5.5-15.8,5.5
			c-6.5,0-11.8-1.8-15.8-5.5c-4-3.7-6.1-8.8-6.5-15.5c-0.2-4.7-0.3-8.6-0.3-11.9c0-3.2,0.1-7.1,0.3-11.8c0.4-6.6,2.5-11.8,6.5-15.5
			C419.1,93.5,424.4,91.6,430.9,91.6L430.9,91.6z"/>
		<path id="TONES" class="st7" d="M552.6,77.9h-64.1c-0.8,0-1.7,0.3-2.2,0.9c-0.6,0.6-0.9,1.5-0.8,2.3v2.1c-0.1,1.6,1.1,3,2.7,3.1
			c0.1,0,0.3,0,0.4,0h27.7v86.5c-0.1,1.6,1.1,3,2.7,3.1c0.1,0,0.3,0,0.4,0h2.5c0.8,0,1.7-0.3,2.3-0.8c0.6-0.6,0.9-1.4,0.9-2.2V86.3
			h27.6c0.8,0,1.7-0.3,2.3-0.8c0.6-0.6,0.9-1.4,0.9-2.2v-2.1c0.2-1.6-1-3-2.6-3.2C553,77.9,552.8,77.9,552.6,77.9L552.6,77.9
			L552.6,77.9z M640.5,115.1c-0.4-12.7-3.8-22.3-10.4-28.8c-6.5-6.5-15.4-9.8-26.6-9.8c-11.2,0-20.1,3.3-26.6,9.8
			s-10,16.1-10.4,28.8c-0.1,2.8-0.1,6.7-0.1,11.8c0,5,0,9,0.1,11.8c0.7,25.8,13,38.6,37,38.6s36.3-12.9,37-38.6
			c0.2-5.6,0.3-9.5,0.3-11.8C640.8,124.6,640.7,120.7,640.5,115.1L640.5,115.1L640.5,115.1z M575.4,115.8
			c0.4-10.5,3.1-18.2,8.1-23.3c5-5.1,11.7-7.6,20-7.6c8.3,0,15,2.5,20,7.6c5,5.1,7.7,12.9,8.1,23.3c0.2,5.6,0.3,9.3,0.3,11.1
			c0,1.8-0.1,5.5-0.3,11.1c-0.4,10.5-3.1,18.2-8,23.3s-11.7,7.6-20.1,7.6c-8.4,0-15.1-2.5-20.1-7.6s-7.7-12.9-8-23.3
			c-0.1-2.8-0.1-6.5-0.1-11.1C575.3,122.3,575.3,118.6,575.4,115.8L575.4,115.8z M671.9,95.5l51.5,78.7c0.6,1,1.7,1.7,2.9,1.7h3.1
			c0.8,0,1.7-0.3,2.2-0.9c0.6-0.6,0.9-1.5,0.8-2.3V81.1c0.2-1.6-1-3-2.6-3.2c-0.2,0-0.4,0-0.6,0h-2.5c-0.8,0-1.7,0.3-2.2,0.9
			c-0.6,0.6-0.9,1.5-0.8,2.3v77.4l-51.7-79c-0.6-1-1.7-1.7-2.9-1.7h-2.9c-0.8,0-1.7,0.3-2.2,0.9c-0.6,0.6-0.9,1.5-0.8,2.3v91.7
			c-0.1,1.6,1.1,3,2.7,3.1c0.1,0,0.3,0,0.4,0h2.5c0.8,0,1.7-0.3,2.3-0.8c0.6-0.6,0.9-1.4,0.9-2.2L671.9,95.5L671.9,95.5z
			 M817.6,167.5h-50v-37.1h45.8c0.8,0,1.7-0.3,2.3-0.8c0.6-0.6,0.9-1.4,0.9-2.2v-2.1c0.2-1.6-1-3-2.6-3.2c-0.2,0-0.4,0-0.6,0h-45.8
			V86.3h48.9c0.8,0,1.7-0.3,2.3-0.8c0.6-0.6,0.9-1.4,0.9-2.2v-2.1c0.2-1.6-1-3-2.6-3.2c-0.2,0-0.4,0-0.6,0h-54.6
			c-0.8,0-1.7,0.3-2.2,0.9c-0.6,0.6-0.9,1.5-0.8,2.3v91.7c-0.1,1.6,1.1,3,2.7,3.1c0.1,0,0.3,0,0.4,0h55.7c0.8,0,1.7-0.3,2.3-0.8
			c0.6-0.6,0.9-1.4,0.9-2.2v-2.1c0.2-1.6-1-3-2.6-3.2C818,167.5,817.8,167.5,817.6,167.5L817.6,167.5L817.6,167.5z M903.4,101
			c-0.3-4.1-1.7-8-4.1-11.4c-2.8-4.1-6.7-7.3-11.2-9.4c-4.9-2.5-10.9-3.7-17.8-3.7c-6-0.1-11.9,1-17.4,3.3c-4.5,1.9-8.3,5-11.1,9
			c-2.6,3.8-3.9,8.3-3.8,12.9c0,5,1,9.2,2.9,12.5c2.2,3.5,5.3,6.4,9,8.3c5.4,2.8,11,5.1,16.9,6.9c8.1,2.6,14.2,4.8,18.2,6.5
			c3.4,1.3,6.6,3.4,9.2,6c2.1,2.4,3.3,5.5,3.2,8.8c0,5.8-2.2,10.3-6.5,13.5c-4.3,3.2-10.9,4.8-19.8,4.8c-8.4,0-14.8-1.7-19.3-5
			c-4.5-3.4-7-7.3-7.7-11.8c-0.4-1.9-1.4-2.8-3.1-2.8h-2.8c-0.8,0-1.5,0.3-2.1,0.8c-0.5,0.5-0.8,1.2-0.8,2c0.2,4.5,1.8,8.8,4.5,12.3
			c3.2,4.1,7.5,7.3,12.3,9.3c6,2.5,12.5,3.7,19,3.6c10.9,0,19.5-2.4,25.8-7.1c6.3-4.7,9.4-11.3,9.4-19.7c0-5-1.1-9.1-3.3-12.3
			c-2.5-3.5-5.9-6.2-9.7-8.1c-5.8-2.8-11.8-5.2-17.9-7c-5.7-1.8-11.4-3.9-16.9-6.2c-3.3-1.4-6.3-3.5-8.6-6.2c-2-2.6-3-5.8-2.9-9
			c0-5.6,2.1-9.8,6.4-12.6c4.2-2.8,10-4.2,17.2-4.2c6.7,0,12.3,1.5,16.7,4.6c4.4,3,6.9,6.9,7.5,11.6c0,0.9,0.4,1.7,1.1,2.2
			c0.6,0.4,1.3,0.6,2,0.6h2.8c1.5,0.1,2.8-1,2.9-2.6C903.4,101.1,903.4,101.1,903.4,101L903.4,101L903.4,101z"/>
	</g>
</g>
</svg>
